<svg xmlns="http://www.w3.org/2000/svg" viewBox="0 0 100 100">
  <defs>
    <linearGradient id="bg" x1="0%" y1="0%" x2="100%" y2="100%">
      <stop offset="0%" style="stop-color:#2563eb"/>
      <stop offset="100%" style="stop-color:#06b6d4"/>
    </linearGradient>
  </defs>
  <!-- Rounded square background -->
  <rect width="100" height="100" rx="22" ry="22" fill="url(#bg)"/>
  <!-- Heart shape -->
  <path d="M50 75 C50 75 20 55 20 35 C20 24 29 17 38 20 C43 22 47 26 50 30 C53 26 57 22 62 20 C71 17 80 24 80 35 C80 55 50 75 50 75Z" fill="white"/>
  <!-- ECG line over heart -->
  <polyline points="28,42 35,42 39,32 43,52 47,38 51,38 55,42 72,42" fill="none" stroke="#2563eb" stroke-width="3.5" stroke-linecap="round" stroke-linejoin="round"/>
</svg>
